<svg version="1.1" id="Layer_1" xmlns="http://www.w3.org/2000/svg" xmlns:xlink="http://www.w3.org/1999/xlink" x="0px" y="0px"
	 width="100%" viewBox="0 0 1024 1024" enable-background="new 0 0 1024 1024" xml:space="preserve">
<path fill="#000000" opacity="1.000000" stroke="none" 
	d="
M255.531342,1.000000 
	C268.434784,5.960688 279.814423,12.799011 290.191559,21.161913 
	C298.569702,27.913822 306.989288,34.704601 313.881195,43.092503 
	C316.832886,46.684868 320.921356,49.243893 323.170380,53.485893 
	C323.873474,54.812050 325.354797,54.831535 326.710999,54.905361 
	C343.374695,55.812431 357.948700,61.978806 369.293610,74.079239 
	C383.753510,89.502121 390.448486,107.958557 387.561859,129.349899 
	C386.783569,135.117371 385.631317,140.791382 383.643158,146.282166 
	C382.992554,148.078918 383.164368,149.844360 384.151855,151.567459 
	C385.976074,154.750717 387.809021,157.898254 390.299377,160.646637 
	C401.138153,172.608353 410.712250,185.589249 420.614929,198.308472 
	C424.885498,203.793762 429.559784,208.963028 433.946655,214.360397 
	C435.709412,216.529236 437.175812,218.684769 436.598206,222.005157 
	C436.034149,225.247513 439.077240,227.344116 441.022644,229.435333 
	C447.858185,236.783264 453.497101,244.989166 459.090820,253.261276 
	C462.435303,258.207123 466.322937,262.756409 469.405579,267.916473 
	C474.084351,275.748291 474.424103,283.156555 469.973297,291.467560 
	C464.521790,301.647217 458.617706,311.403900 450.671112,319.778656 
	C437.247742,333.925201 422.644745,346.652039 405.552460,356.297668 
	C402.525757,358.005707 399.663696,360.005554 395.953705,362.360687 
	C404.852295,362.360687 413.011963,362.691376 421.136108,362.294586 
	C440.420715,361.352631 459.328369,363.230133 477.855042,368.751801 
	C480.415222,369.514832 481.515167,371.522247 482.418365,373.693054 
	C486.064056,382.455536 489.380646,391.334717 491.418701,400.633698 
	C493.029022,407.981018 493.778320,408.487061 501.174988,407.301575 
	C521.019226,404.121094 540.893188,401.116669 560.703064,397.735931 
	C568.717773,396.368134 576.577637,394.090607 584.760498,393.715149 
	C587.116699,393.607025 589.115234,392.585236 590.090149,390.528320 
	C594.525391,381.170898 600.796570,372.889191 605.627136,363.783478 
	C610.819397,353.996002 617.053406,344.709412 621.942566,334.904724 
	C628.781372,321.190277 638.399292,309.115051 644.263306,294.905151 
	C645.561890,291.758484 647.968323,289.144531 651.133179,287.200562 
	C657.675659,283.181946 658.740967,280.630585 656.696411,273.082458 
	C653.954163,262.958771 651.585693,252.471329 655.966736,242.731674 
	C663.350830,226.315872 671.226929,209.728287 692.227173,206.504181 
	C695.862000,205.946152 698.566711,202.899216 701.392578,200.700394 
	C713.984802,190.902176 726.923340,181.625168 740.053772,172.551270 
	C754.200073,162.775284 769.833130,155.810486 784.593445,147.228012 
	C786.986755,145.836395 789.299316,145.474991 791.395386,147.698547 
	C794.353516,150.836807 797.264465,154.019577 800.196289,157.182678 
	C809.614746,167.344254 804.937866,177.731003 797.478088,184.323395 
	C789.895020,191.024765 781.555054,196.868988 773.559570,203.105255 
	C772.293762,204.092575 770.468384,204.521927 770.046021,206.572311 
	C771.658142,208.331055 774.053284,208.416245 775.976257,208.293152 
	C789.997742,207.395691 803.908203,209.248840 817.863953,209.784149 
	C841.944397,210.707779 865.981201,212.473572 889.975586,214.717346 
	C910.300049,216.617935 930.641724,218.411850 950.910522,220.805817 
	C970.030090,223.064056 988.940857,226.939926 1008.150208,228.605148 
	C1011.442505,228.890533 1014.652832,229.703613 1015.853943,233.136200 
	C1017.069336,236.609665 1016.201538,239.680374 1012.673462,241.648254 
	C1011.379822,242.369858 1011.477051,243.897446 1011.188232,245.198685 
	C1006.999756,264.066284 1005.133179,283.235321 1003.018555,302.417053 
	C1000.117554,328.731873 998.829468,355.131073 997.600098,381.525391 
	C996.484497,405.477051 996.764832,429.490173 996.068604,453.465759 
	C995.047974,488.610504 996.294373,523.792603 994.907776,558.899475 
	C993.872192,585.117249 992.219543,611.350647 989.600037,637.517456 
	C987.614197,657.354614 985.894409,677.228088 983.388123,697.002747 
	C980.127258,722.731750 976.390930,748.404236 970.889282,773.779053 
	C966.415466,794.413086 962.247009,815.118591 955.985962,835.322510 
	C954.906250,838.806519 954.376953,842.463074 953.264832,845.934570 
	C951.254211,852.210388 949.419983,853.399292 942.876038,852.073792 
	C933.590088,850.192932 924.216980,848.479797 915.165649,845.751221 
	C884.406433,836.478638 853.065369,829.584351 821.732788,822.733643 
	C787.345947,815.215149 752.885437,807.920593 718.244568,801.714905 
	C693.585693,797.297546 668.763855,793.523132 643.783997,791.050049 
	C633.705627,790.052246 623.675537,788.534424 613.644226,787.107422 
	C608.372559,786.357483 605.705383,782.711487 606.151367,777.730957 
	C607.396301,763.828491 608.455017,749.908813 609.764709,736.012695 
	C610.947510,723.462219 612.439697,710.941284 613.660095,698.394104 
	C615.315552,681.374390 617.137146,664.363037 618.342102,647.309509 
	C619.583374,629.741882 622.177856,612.332336 623.779602,594.809326 
	C625.259216,578.623962 627.330139,562.493347 629.045166,546.328491 
	C630.359253,533.942627 631.441345,521.532043 632.774841,509.148407 
	C634.996338,488.517365 635.682312,467.744995 638.528992,447.173187 
	C638.551880,447.008148 638.597900,446.838776 638.580872,446.676910 
	C638.352966,444.514374 639.808777,441.079559 636.819885,440.695679 
	C633.277710,440.240723 634.388550,444.000519 634.190063,445.974274 
	C633.279175,455.030640 629.792786,463.035004 624.356201,470.143250 
	C615.344482,481.926025 602.722168,482.703674 589.501648,480.743408 
	C585.093750,480.089813 580.685547,478.982452 576.798218,476.472992 
	C575.871704,475.874817 574.615051,475.424744 573.537903,475.476898 
	C554.273315,476.409576 535.012878,477.427002 515.752808,478.450562 
	C515.287109,478.475311 514.836121,478.778168 513.848206,479.151794 
	C514.842407,483.933105 515.494873,488.858215 516.919800,493.548706 
	C519.820312,503.096832 522.621155,512.675537 524.497803,522.463623 
	C525.425415,527.302246 528.127563,528.889893 532.458008,528.672241 
	C540.155457,528.285400 545.934570,531.767822 551.536072,536.721558 
	C558.837585,543.178772 556.822571,554.671814 551.971191,559.730103 
	C548.452271,563.399231 544.637451,567.071838 539.464844,568.539734 
	C534.789185,569.866699 533.648254,572.439026 534.667908,577.359619 
	C540.566589,605.826172 546.221008,634.345215 551.698364,662.896362 
	C553.950378,674.635437 555.337769,686.645569 559.369812,697.876099 
	C567.821167,721.415894 573.118713,745.689270 578.405151,770.044250 
	C580.567444,780.005981 577.701294,786.740234 569.976868,792.427612 
	C547.572693,808.923401 524.101746,823.486206 498.548126,834.782410 
	C489.456116,838.801636 480.540192,843.286560 471.278442,846.978821 
	C468.352875,848.145020 467.969452,849.760071 469.254395,852.826782 
	C477.932922,873.539673 479.796448,894.004883 465.559570,913.302002 
	C462.637695,917.262390 463.108398,921.505493 463.400085,925.731506 
	C464.590790,942.983154 466.057495,960.215759 467.267609,977.466248 
	C467.468689,980.332458 468.574799,981.262512 471.336243,981.958130 
	C488.432983,986.264709 503.881744,994.105225 518.268066,1004.238159 
	C526.096619,1009.752075 532.817322,1016.232910 537.997803,1024.646729 
	C529.979065,1025.000000 521.958191,1025.000000 513.273682,1024.728760 
	C509.632935,1020.474548 504.996460,1018.601868 501.274323,1015.560608 
	C493.007263,1008.805786 483.321136,1004.937134 473.206329,1001.927612 
	C468.898743,1000.645813 465.768768,1000.983521 464.537781,1006.145325 
	C464.187500,1007.614136 462.675812,1008.831543 461.622742,1010.102966 
	C454.981873,1018.121887 445.640533,1020.391418 436.029572,1022.061157 
	C427.032410,1023.624268 418.322144,1023.135803 409.488800,1020.199402 
	C400.872711,1017.335266 393.365112,1012.326355 385.032776,1008.970947 
	C382.046753,1007.768555 380.558685,1004.892761 380.730927,1001.196045 
	C381.041962,994.520630 379.778046,993.839233 373.583191,996.874878 
	C366.697937,1000.248779 360.259644,1004.373718 353.890289,1008.628601 
	C346.594299,1013.502502 345.826691,1017.485962 351.000000,1025.000000 
	C342.979095,1025.000000 334.958191,1025.000000 326.427460,1024.594482 
	C326.270050,1022.227295 326.481842,1020.227783 326.999481,1018.310852 
	C329.140778,1010.380615 332.015045,1002.081970 338.251862,997.132568 
	C349.724121,988.028503 362.833862,981.221313 377.269958,977.658813 
	C381.225037,976.682739 382.963196,974.561768 383.795471,970.672852 
	C386.783386,956.711365 390.347778,942.868225 393.092224,928.862366 
	C394.075836,923.842712 396.655701,918.439941 393.665527,913.327454 
	C388.319092,904.186279 389.276184,894.463257 390.483154,884.685913 
	C391.003418,880.471802 391.855927,876.298645 392.494843,872.481506 
	C391.330475,871.335632 390.519806,871.575867 389.717255,871.809753 
	C367.977020,878.144165 345.694366,881.828674 323.403076,885.511658 
	C315.030762,886.894897 306.633484,887.850281 298.172882,888.334167 
	C291.896912,888.693176 291.568298,889.240967 291.207947,895.307007 
	C290.893463,900.600586 290.123138,905.875610 289.370422,911.132568 
	C288.342468,918.311707 285.277496,924.388062 279.262726,928.747620 
	C276.664246,930.631104 275.399689,933.188782 275.296631,936.420959 
	C275.217468,938.903564 274.936615,941.382874 274.673859,943.855957 
	C272.920837,960.356140 271.154327,976.854797 269.376587,993.352356 
	C269.093506,995.979431 270.131683,997.732971 272.432739,999.068176 
	C276.735321,1001.564819 280.949402,1004.218445 285.147186,1006.890198 
	C292.477478,1011.555847 299.275970,1016.768860 303.000000,1025.000000 
	C264.645782,1025.000000 226.291550,1025.000000 187.374695,1024.658081 
	C184.704712,1020.916382 182.672195,1017.426697 182.150833,1013.414734 
	C181.692856,1009.890686 179.719528,1009.066528 176.629425,1009.374451 
	C169.813629,1010.053772 164.073639,1013.461914 158.261368,1016.636658 
	C156.470520,1017.614807 153.926071,1018.202271 154.001724,1020.949402 
	C154.088104,1024.085449 157.140320,1023.875610 159.000000,1025.000000 
	C146.645767,1025.000000 134.291550,1025.000000 121.458733,1024.649414 
	C123.888420,1020.285645 126.291656,1015.790405 130.336456,1012.783447 
	C141.141678,1004.750977 152.032059,996.801147 165.359482,993.291016 
	C170.981598,991.810242 176.621292,990.390320 182.280075,989.057800 
	C184.197250,988.606323 185.772705,987.903625 186.402390,985.917114 
	C187.906891,981.171143 189.430328,976.429932 190.840225,971.655457 
	C194.321136,959.867615 198.037491,948.137573 201.085388,936.237427 
	C203.152786,928.165405 207.709686,920.075745 202.315781,911.413208 
	C201.308411,909.795471 201.911865,907.187134 201.732315,905.039185 
	C201.188736,898.536865 203.783951,892.349670 204.122467,886.135986 
	C202.074753,884.871521 200.316483,884.543640 198.508347,884.177856 
	C191.019165,882.663147 183.340942,881.656189 176.133774,879.256470 
	C156.771057,872.809204 137.324448,866.467163 119.578308,856.002563 
	C116.149902,853.980835 113.913170,851.530273 113.540359,847.488647 
	C112.655838,837.899536 111.642326,828.321960 110.813103,818.728271 
	C110.041214,809.797852 107.239952,800.326843 110.160759,792.013245 
	C113.902924,781.361816 110.442619,772.144531 108.202301,762.524353 
	C105.377899,750.396057 101.819366,738.440491 98.700371,726.378601 
	C93.958809,708.041809 89.403221,689.656738 84.618782,671.331299 
	C80.087761,653.976562 75.576607,636.611328 70.643852,619.368774 
	C67.737785,609.210632 67.287659,598.310669 61.512863,588.992310 
	C54.880638,578.290466 52.615417,566.584351 53.719364,554.112427 
	C54.056114,550.307922 54.328377,546.449829 53.169365,542.705078 
	C47.664986,524.920593 43.647690,506.773254 40.069012,488.527374 
	C39.104504,483.609863 40.754505,479.473663 44.613205,476.028809 
	C47.537189,473.418365 51.017193,471.873779 54.307671,469.971588 
	C66.531929,462.904816 78.380188,455.046265 91.373962,449.498108 
	C111.370468,440.959900 131.939453,433.867584 152.421036,426.555603 
	C161.476547,423.322754 171.192520,422.377625 180.055725,418.064453 
	C177.382675,416.987915 174.921448,418.264130 172.456543,418.056152 
	C152.962067,416.411530 133.448425,415.605408 113.981964,412.822235 
	C98.849937,410.658752 89.477577,402.877716 82.363731,390.864502 
	C77.187576,382.123413 70.145004,375.235413 62.625263,368.694855 
	C60.984352,367.267609 58.979244,366.476562 56.717133,366.272461 
	C40.332203,364.794250 27.361843,356.611481 15.836949,345.497040 
	C10.790965,340.630768 7.023882,334.796753 3.252446,329.100616 
	C1.523728,329.686951 1.945240,331.306244 1.000000,332.000000 
	C1.000000,293.979095 1.000000,255.958206 1.339350,217.392975 
	C3.626122,215.585754 5.637801,214.410767 7.508534,213.042999 
	C12.510329,209.386063 17.742714,205.814590 23.639406,204.188782 
	C43.826599,198.622879 61.614101,204.212418 76.582123,218.073349 
	C86.102135,226.889191 93.290161,237.588120 98.687500,249.680862 
	C106.858116,267.987122 110.090500,286.860443 109.458344,306.802032 
	C108.842659,326.223572 99.349525,340.372528 84.899529,351.976013 
	C79.368553,356.417480 79.111115,356.966034 84.006569,362.445099 
	C89.736641,368.858307 95.875244,374.799164 99.581635,382.922089 
	C102.672501,389.696014 108.280914,393.728394 116.323227,394.407288 
	C128.705383,395.452545 140.990738,397.921570 153.379990,398.552094 
	C186.100967,400.217285 218.778152,400.446930 251.425995,395.997925 
	C275.785583,392.678406 299.358063,386.758667 322.404205,378.491364 
	C329.598389,375.910614 336.421234,372.282013 343.638550,369.780792 
	C358.524017,364.622070 371.781494,356.239075 385.275269,348.525452 
	C397.607758,341.475647 410.071625,334.208923 420.064240,323.668243 
	C421.400635,322.258545 423.304810,321.330383 425.057617,320.386292 
	C427.314789,319.170563 429.237152,317.550079 430.698761,315.533112 
	C437.972931,305.495422 447.234711,296.951447 452.325592,285.226929 
	C454.145477,281.035645 454.446075,278.347595 451.795837,274.459686 
	C444.673035,264.010529 435.893005,254.798553 429.349365,243.941757 
	C427.115204,240.235031 423.570557,237.856247 419.965240,235.892715 
	C415.476105,233.447845 411.577087,236.422592 407.937012,238.632050 
	C404.979858,240.426987 404.190033,243.387924 404.728821,246.886810 
	C405.613098,252.629166 408.181244,257.337433 411.479858,262.148865 
	C415.882324,268.570465 420.685608,273.801514 428.306213,276.090668 
	C429.685516,276.504974 430.885498,277.602295 432.093231,278.486786 
	C437.292114,282.294250 438.386108,287.105774 435.598602,292.913940 
	C429.305237,306.027039 418.037415,314.069305 406.011383,320.912415 
	C393.891724,327.808777 382.738251,336.317169 369.881897,342.002533 
	C362.904053,345.088226 356.672943,350.071289 349.531281,352.536255 
	C332.265167,358.495697 315.921326,366.690308 298.252563,371.791168 
	C265.300415,381.304260 232.225815,388.543671 197.648483,386.103394 
	C193.025284,385.777130 189.366150,385.142487 190.546173,379.050476 
	C190.809357,377.691742 190.193527,376.082672 189.724808,374.674591 
	C184.286118,358.336182 185.932663,341.849579 188.719467,325.362366 
	C189.466415,320.943298 192.073730,317.167236 195.438446,314.608246 
	C201.517593,309.984772 208.329498,306.434906 215.438278,303.502289 
	C229.278076,297.792999 242.525986,290.795380 256.257233,284.806946 
	C274.674866,276.774658 292.531799,267.461334 310.676331,258.796143 
	C319.369263,254.644730 327.941772,250.251007 336.645172,246.113541 
	C351.940826,238.842209 366.601166,230.279724 382.033417,223.219604 
	C390.313263,219.431641 398.464020,215.346619 407.023041,212.166962 
	C406.770233,211.173065 406.785645,210.605042 406.515442,210.261871 
	C395.429260,196.180893 384.306671,182.128571 373.221130,168.047058 
	C371.665924,166.071503 370.400360,166.654251 368.607880,167.874176 
	C365.256165,170.155334 363.530426,173.980469 360.000854,176.121262 
	C345.894958,184.676880 330.686279,188.838348 314.255432,187.007111 
	C297.712280,185.163315 283.854919,177.599915 273.007935,164.986343 
	C261.611450,151.733749 256.735474,136.024307 257.789307,118.738983 
	C259.141937,96.553116 268.443665,78.596764 287.316681,65.983421 
	C291.840240,62.960209 296.867126,60.872864 301.851593,57.680355 
	C297.104462,50.718021 290.590240,45.995735 284.738251,40.762402 
	C276.438721,33.340240 267.001373,27.393835 257.134399,22.179535 
	C246.373367,16.492746 235.206604,11.500145 223.473206,8.572795 
	C203.588547,3.611799 183.402451,0.921361 162.703873,3.073135 
	C149.447327,4.451252 136.192917,5.718067 123.391525,9.388504 
	C101.401573,15.693504 80.490356,24.448639 61.331150,37.285240 
	C44.091278,48.835896 28.270426,61.826981 14.912927,77.791794 
	C9.811320,83.889198 5.393542,90.421265 1.000000,97.000000 
	C1.000000,85.979103 1.000000,74.958214 1.276804,63.279449 
	C6.113408,55.118912 13.452188,50.239967 19.552429,44.274517 
	C26.979830,37.011234 35.757290,31.113836 44.061031,24.769939 
	C46.700314,22.753582 48.580013,21.415113 47.105484,17.197744 
	C45.198093,11.742314 41.123657,7.089814 41.000000,1.000000 
	C48.020947,1.000000 55.041897,1.000000 62.633068,1.352631 
	C64.032356,3.994292 64.198288,6.597242 66.503281,8.604698 
	C70.467155,6.265043 74.675522,4.342208 78.000000,1.000000 
	C137.020889,1.000000 196.041794,1.000000 255.531342,1.000000 
M914.641357,826.731934 
	C920.739746,828.364868 926.804260,830.145752 932.953857,831.555054 
	C935.284119,832.089050 937.870911,832.437683 938.865295,828.843506 
	C944.403259,808.825928 949.669861,788.710754 953.483459,768.319336 
	C957.325439,747.776367 960.671814,727.123596 963.453918,706.376526 
	C965.858948,688.440796 967.775330,670.462952 969.583496,652.475647 
	C971.112610,637.264648 971.669067,621.958679 972.918274,606.716187 
	C974.899780,582.536743 976.442261,558.335571 976.599609,534.073181 
	C976.670776,523.094055 975.898682,512.109863 975.956665,501.130280 
	C976.078857,477.983459 976.458740,454.837616 976.812622,431.692596 
	C976.934631,423.709412 977.280090,415.710388 977.391541,407.747070 
	C977.808472,377.965393 978.946106,348.236603 981.821472,318.593353 
	C982.686462,309.675964 982.824219,300.708771 984.386475,291.827179 
	C986.832520,277.921112 988.661926,263.907562 990.913696,249.965607 
	C991.539612,246.090439 990.203857,244.695679 986.371704,244.134232 
	C963.036560,240.715317 939.781555,236.976868 916.228027,234.923340 
	C893.069153,232.904190 869.926880,230.427063 846.752075,228.585297 
	C821.739502,226.597488 796.638428,225.717773 771.572510,224.420303 
	C770.029114,224.340408 768.274841,224.018829 766.723511,225.523911 
	C769.479248,228.662308 772.000183,231.839462 775.155579,234.599503 
	C780.647644,239.403336 786.407104,244.338654 788.172180,251.814468 
	C789.328674,256.712616 792.343933,257.393555 796.487793,257.750122 
	C811.701660,259.059204 826.908630,260.480560 842.091736,262.106354 
	C857.950134,263.804413 873.775574,265.808868 889.622070,267.621216 
	C891.933594,267.885559 894.623718,267.394318 894.406616,271.030029 
	C894.209290,274.333740 891.858093,274.371277 889.368286,274.340393 
	C883.530884,274.268005 877.789734,273.441132 872.036072,272.539124 
	C869.736877,272.178680 866.723267,271.190613 865.529419,274.408020 
	C864.016357,278.485901 861.127808,281.845154 859.887024,286.071625 
	C859.269653,288.174805 858.761658,290.892517 855.730103,291.048950 
	C852.856506,291.197205 851.163696,289.303101 849.879150,287.044952 
	C848.400696,284.446014 847.061218,281.757629 844.110229,280.636139 
	C842.163940,281.084167 841.434021,282.766235 840.183350,283.813263 
	C838.837830,284.939728 837.136902,285.067535 835.592041,285.643036 
	C833.124023,286.562378 832.632141,291.544525 829.045654,289.579681 
	C826.578186,288.227905 826.907715,284.568542 825.605042,282.072113 
	C822.702820,276.510162 821.348755,276.313904 817.696045,281.505493 
	C816.659302,282.979034 815.423889,284.192139 813.564331,283.312347 
	C811.393311,282.285248 811.618164,280.386963 812.553833,278.613983 
	C813.794373,276.263031 815.186035,273.991547 816.523499,271.692108 
	C817.855469,269.402161 817.851196,267.223877 814.884033,266.739563 
	C811.070862,266.117218 807.143677,265.634705 803.291626,266.521454 
	C803.170715,268.798950 804.648254,269.878998 805.542603,271.205322 
	C814.150452,283.971039 807.997925,296.388306 793.974731,299.692291 
	C785.259338,301.745636 776.397583,302.994354 767.740967,303.707581 
	C774.524048,307.141357 781.619202,308.186432 789.340271,307.980103 
	C816.927124,307.242859 843.928772,312.168915 870.814392,317.760406 
	C873.958313,318.414276 875.520752,319.874268 875.262024,323.173218 
	C875.106079,325.162109 875.301758,327.180176 875.121216,329.165283 
	C873.855957,343.077667 872.618042,356.993408 871.208435,370.891571 
	C869.465454,388.077667 867.412170,405.233093 865.536194,422.403351 
	C864.401611,432.787872 863.136475,443.153473 862.169067,453.565857 
	C861.660461,459.039886 861.429199,464.494415 861.151611,469.966400 
	C861.027893,472.404358 860.973755,475.562683 857.567627,475.522888 
	C853.830566,475.479187 854.470886,472.291626 854.648315,469.858307 
	C855.130676,463.242432 855.862122,456.612701 856.325745,450.035645 
	C857.656311,431.159821 859.670349,412.369263 861.612366,393.559570 
	C863.779114,372.572906 865.694580,351.559265 868.609253,330.658112 
	C869.194214,326.463135 867.955566,324.493408 863.531677,323.358734 
	C846.385132,318.960693 828.955444,316.326813 811.353821,315.568939 
	C795.057861,314.867340 778.682556,314.948914 762.384460,315.658112 
	C746.270081,316.359344 730.689209,321.446594 714.581604,322.714264 
	C702.811890,323.640533 696.362000,331.583160 691.134644,340.967804 
	C690.335999,342.401642 689.620422,344.111450 690.908264,345.646973 
	C691.891479,346.819214 693.274597,346.429779 694.632507,346.222961 
	C710.619934,343.787720 726.734619,343.199799 742.874390,342.682831 
	C769.048462,341.844391 795.037109,345.051025 821.131592,345.875397 
	C825.440674,346.011566 829.774780,346.421967 834.019409,347.155975 
	C836.847961,347.645111 839.215332,349.384766 837.849121,352.792572 
	C836.672363,355.727753 834.625244,357.476288 831.185791,355.385864 
	C830.240112,354.811066 829.017151,354.524445 827.894775,354.432892 
	C804.546265,352.528107 781.186707,350.886658 757.756836,350.231903 
	C745.413818,349.886993 733.150146,351.510773 720.834595,351.146698 
	C710.986328,350.855560 701.199524,351.685608 691.396851,352.303436 
	C688.179077,352.506226 685.712646,353.943878 684.177368,357.131775 
	C690.310242,354.502106 696.501953,354.381897 703.033813,354.531525 
	C722.838379,354.985107 741.656555,358.719055 759.097839,368.382080 
	C760.906555,369.384186 762.805054,369.777344 764.847290,369.772278 
	C783.997681,369.724884 803.105042,371.570190 822.268372,371.082336 
	C824.241882,371.032074 826.279968,371.275970 828.192993,371.759521 
	C829.893188,372.189270 832.022705,372.672241 832.014465,375.047913 
	C832.005798,377.556946 830.101257,378.426910 827.988647,378.659149 
	C825.515686,378.931030 823.010864,379.137054 820.528687,379.065125 
	C801.888245,378.525208 783.249390,377.928345 764.611450,377.305756 
	C759.391174,377.131439 754.512817,375.919098 749.890259,373.208954 
	C745.898743,370.868774 741.590149,368.969635 737.244873,367.350098 
	C718.907410,360.515503 700.225464,360.833038 681.333313,364.776459 
	C677.960083,365.480621 676.076721,367.190765 674.650940,370.010040 
	C671.646179,375.951172 668.488037,381.815918 665.554016,387.791168 
	C663.726379,391.513245 662.258057,395.293854 662.175903,399.654724 
	C661.871887,415.784180 659.089111,431.708160 657.841003,447.772003 
	C656.529114,464.657166 654.348816,481.474792 652.548889,498.322052 
	C650.925781,513.514648 649.295166,528.706482 647.683350,543.900330 
	C645.545654,564.050720 643.095032,584.175232 641.405151,604.363342 
	C640.212524,618.611389 638.031006,632.731323 636.786194,646.963989 
	C635.526978,661.360352 634.050903,675.737915 632.624329,690.119202 
	C631.329346,703.174072 629.964417,716.222046 628.646484,729.274597 
	C627.461792,741.007446 626.100708,752.727356 625.206543,764.482605 
	C624.728882,770.761658 625.529724,771.218933 631.739563,771.747803 
	C635.547058,772.072083 639.377075,772.334045 643.137756,772.972473 
	C662.448364,776.251038 681.924011,778.355408 701.266968,781.488281 
	C729.172363,786.007935 756.907593,791.370239 784.622070,796.824219 
	C810.051819,801.828674 835.398621,807.255066 860.602844,813.418274 
	C878.353882,817.758911 896.103271,822.117126 914.641357,826.731934 
M196.393326,795.675903 
	C204.271683,793.651184 212.260651,795.527649 220.211288,795.178894 
	C236.822662,794.450012 253.382614,793.511230 269.951599,792.028137 
	C296.993439,789.607483 323.567963,784.847229 349.999054,778.739685 
	C380.127838,771.777710 410.020477,764.063660 439.293762,754.080383 
	C453.311127,749.299988 467.035004,743.725342 480.846893,738.381836 
	C500.643585,730.722900 518.847900,720.115234 537.437866,710.171570 
	C539.900330,708.854370 541.152222,707.154907 540.290161,704.094299 
	C539.530151,701.396179 539.514832,698.497192 538.892212,695.750061 
	C532.535645,667.704956 528.369568,639.212524 521.629944,611.247681 
	C519.372009,601.878906 518.856506,592.163574 515.913269,582.931213 
	C515.341125,581.136597 514.864258,578.747253 512.541687,579.560547 
	C507.067841,581.476990 501.511536,584.093872 497.694824,588.223755 
	C493.382721,592.889771 494.947205,603.149109 499.817810,607.566528 
	C502.764496,610.239014 504.741760,613.387268 506.523499,616.763794 
	C515.565552,633.899170 503.977478,655.341858 484.680176,657.197021 
	C482.625214,657.394592 480.906860,657.508667 480.168823,660.113342 
	C475.570343,676.342529 465.807526,682.344360 449.960144,682.032104 
	C433.429047,681.706482 417.178192,678.917419 401.727142,672.668701 
	C399.035767,671.580200 396.750397,671.753601 394.070404,672.521423 
	C378.396240,677.012329 362.688965,681.545593 346.521454,683.769775 
	C341.401459,684.474060 339.054779,686.515137 337.282806,690.964722 
	C335.023529,696.638062 330.748962,701.220459 325.955750,704.648743 
	C316.361115,711.511108 305.709442,715.461304 293.477692,715.580139 
	C273.449921,715.774780 258.272705,706.767517 246.606949,691.622498 
	C242.452896,686.229553 239.101807,681.081543 232.663025,677.689331 
	C215.153961,668.465027 199.622070,656.054443 183.162231,645.127319 
	C178.876831,642.282349 174.349228,639.853149 170.160904,636.801819 
	C159.679153,629.165344 148.844208,622.011414 138.092758,614.750122 
	C136.641373,613.769897 135.018219,612.770508 133.018738,614.032959 
	C121.382912,621.379089 108.931282,621.695618 96.040733,618.239380 
	C94.689903,617.877258 93.259216,616.837341 91.616539,618.227539 
	C91.616539,618.732178 91.463821,619.413269 91.639099,619.995667 
	C95.190651,631.796448 97.796936,643.834534 100.800285,655.774536 
	C108.305290,685.611389 116.335831,715.315552 124.025108,745.106628 
	C127.600769,758.960083 130.918549,772.881104 134.246521,786.796936 
	C134.932632,789.665955 136.326141,790.829346 139.362320,791.060242 
	C158.082825,792.483826 176.787415,794.116760 196.393326,795.675903 
M495.687469,488.716827 
	C491.240417,472.708130 486.516296,456.769836 482.426636,440.670349 
	C478.574005,425.504089 474.125916,410.533600 469.237549,395.684845 
	C467.580780,390.652405 466.272095,390.432892 462.526184,394.088440 
	C461.337311,395.248596 460.208313,396.617035 458.776520,397.358063 
	C447.414612,403.238464 436.342407,409.892395 424.494995,414.571136 
	C406.581024,421.645691 389.043762,429.602051 370.724396,435.815948 
	C348.215485,443.450867 325.694611,450.953094 302.806580,457.319275 
	C285.838867,462.038818 268.658203,465.883301 251.414505,469.529816 
	C237.585281,472.454285 223.708572,475.004761 209.765793,477.181854 
	C193.676437,479.694153 177.535263,481.920837 161.369644,483.885284 
	C145.050446,485.868439 128.694199,487.615997 112.316307,489.027191 
	C96.754616,490.368103 81.164055,491.352509 65.644554,493.189301 
	C62.151451,493.602722 61.097343,495.080200 61.961201,498.527466 
	C63.657589,505.297058 65.027397,512.148010 66.656792,518.935364 
	C66.982742,520.293091 67.241402,521.979187 69.646729,522.461792 
	C72.897987,519.656006 76.118477,516.226257 79.935143,513.695679 
	C96.426575,502.761078 119.305939,503.321350 135.486954,515.100098 
	C143.513870,520.943115 149.300705,528.684326 150.989929,538.657898 
	C151.656128,542.591248 152.501419,545.226501 156.474380,547.085693 
	C160.316483,548.883728 163.916168,551.533630 167.318222,554.103394 
	C177.424316,561.737061 188.433640,567.997742 199.122025,574.627014 
	C209.649582,581.156616 219.870789,588.239319 230.922485,594.056091 
	C240.968475,599.343445 249.826599,606.844604 259.511749,612.883240 
	C263.076599,615.105896 266.379089,619.692810 271.502838,617.319824 
	C275.730377,615.361877 280.062012,614.732727 284.565186,614.614990 
	C297.620514,614.273499 310.308136,615.822083 320.675690,624.623169 
	C326.097382,629.225647 331.086639,630.218262 337.012787,626.151062 
	C338.068298,625.426636 339.483337,625.152771 340.774994,624.856995 
	C355.364685,621.516113 369.315216,615.834106 384.053955,613.049500 
	C386.102936,612.662476 387.926270,611.971191 388.906433,609.974304 
	C391.789948,604.099731 395.571625,598.817627 400.225739,594.284790 
	C406.480560,588.193054 412.218231,581.304016 419.932678,577.067444 
	C431.994995,570.443115 443.525604,562.865356 456.331268,557.522766 
	C464.261688,554.214111 471.481842,549.242004 479.279724,545.565735 
	C487.384796,541.744690 495.742371,538.430847 504.112152,535.214233 
	C507.320526,533.981201 507.379303,532.327515 506.592163,529.492188 
	C502.902649,516.202209 499.397308,502.861176 495.687469,488.716827 
M130.128632,819.524048 
	C130.550507,824.499451 130.926620,829.479248 131.408432,834.448792 
	C131.808472,838.574768 133.284058,841.807617 137.232437,844.150635 
	C142.897522,847.512390 149.197632,849.132690 155.130249,851.720703 
	C179.582550,862.388245 205.185883,869.034546 231.774994,870.517639 
	C252.516144,871.674561 273.353149,871.607605 294.139008,869.897827 
	C320.024353,867.768555 345.565643,863.626892 370.890686,857.931274 
	C382.421204,855.338013 393.661682,851.642700 405.152863,849.014954 
	C418.997406,845.848999 432.360504,841.198242 445.518280,836.169861 
	C458.951233,831.036133 472.247528,825.389404 485.519531,819.811340 
	C500.614441,813.467163 514.539490,805.216553 528.764893,797.475220 
	C538.794373,792.017334 547.795959,784.683899 557.347412,778.324524 
	C559.628113,776.805969 559.543152,775.032166 559.228210,772.728943 
	C557.580505,760.679443 554.045410,749.035889 551.634521,737.151062 
	C551.035950,734.200256 551.425598,730.816589 549.113525,728.074341 
	C547.896790,728.556824 546.742371,728.837646 545.773926,729.425171 
	C530.276611,738.826111 514.070984,746.774597 497.486816,754.099487 
	C485.921478,759.207581 474.313965,764.201416 462.441010,768.460449 
	C449.953857,772.939819 437.088409,776.352112 424.496521,780.554932 
	C406.825653,786.453125 388.732422,790.867615 370.624207,794.946228 
	C344.568909,800.814941 318.374634,806.122864 291.827667,809.612244 
	C268.890900,812.627014 245.888596,814.359558 222.807098,815.121582 
	C210.006165,815.544128 197.195679,815.248596 184.377975,814.401550 
	C168.433182,813.347961 152.579971,811.663940 136.760284,809.508911 
	C134.369095,809.183105 131.907608,808.333069 129.612244,809.550354 
	C128.607513,812.769165 130.154541,815.650940 130.128632,819.524048 
M365.801331,99.767570 
	C361.768646,92.852211 357.448853,86.164978 350.689636,81.517746 
	C331.012482,67.988899 302.526184,70.300377 286.471985,90.181259 
	C278.809845,99.669724 273.815155,110.504433 274.497467,122.657074 
	C275.887756,147.419678 291.878937,165.451813 316.958740,169.511292 
	C335.257782,172.473236 359.177612,158.997421 366.080017,142.043732 
	C371.631958,128.406982 372.518616,114.317116 365.801331,99.767570 
M266.413971,443.190186 
	C264.767395,443.396729 263.039276,443.350647 261.487640,443.851410 
	C252.394730,446.785980 243.029755,447.980988 233.545349,448.557953 
	C227.247757,448.941101 220.982376,449.728271 214.775742,447.572327 
	C207.088547,444.902069 205.176193,439.652893 209.596771,432.963531 
	C210.728516,431.250916 212.794022,429.926025 212.391434,427.395264 
	C210.843643,426.614410 209.143204,426.846893 208.002045,427.559235 
	C200.350662,432.335327 191.574448,433.902435 183.149887,436.382233 
	C169.086929,440.521606 155.858521,446.993042 141.764374,450.980530 
	C127.297768,455.073364 114.012352,462.061401 100.150017,467.630798 
	C98.046532,468.475922 96.228271,469.938751 95.128159,472.240356 
	C97.446671,473.490173 99.689461,473.104401 101.691643,472.766327 
	C115.295883,470.469025 129.114029,470.103333 142.735992,467.828461 
	C169.412186,463.373566 196.514236,461.793365 222.981812,455.805084 
	C253.900986,448.809631 285.278137,444.119598 315.580933,434.029114 
	C331.351837,428.777618 346.817627,422.806488 362.483795,417.340637 
	C382.852936,410.233917 403.109314,402.831665 422.746826,393.863617 
	C430.138245,390.488159 437.357544,386.735779 445.490051,382.745697 
	C439.448303,381.554443 434.507141,381.085083 429.501373,381.302826 
	C410.571075,382.126282 391.651550,383.190704 372.979309,386.608215 
	C357.785431,389.389099 342.682770,392.497375 327.764801,396.721252 
	C318.486969,399.348175 314.184448,403.474274 313.890533,413.570068 
	C313.606598,423.324066 308.160034,430.738068 298.563995,434.963409 
	C288.504211,439.392883 277.744324,440.557770 266.413971,443.190186 
M172.549896,616.892090 
	C194.293900,631.604919 216.037888,646.317810 238.916809,661.798584 
	C241.210938,649.001404 244.268295,638.248657 252.847000,629.784180 
	C250.248123,628.008179 248.360489,626.674805 246.430130,625.406372 
	C236.426346,618.833252 226.076935,612.769409 216.133728,606.151428 
	C205.217758,598.885986 193.618362,592.722595 182.978622,585.085144 
	C176.618439,580.519653 169.161575,577.710938 163.113068,572.904358 
	C156.511902,567.658508 149.046143,564.128540 141.889664,559.955750 
	C138.781311,558.143372 136.808838,558.827209 135.121414,562.045227 
	C132.557617,566.934448 130.373581,571.900085 129.241760,577.339539 
	C128.136398,582.651855 129.900848,588.288452 134.277908,591.260681 
	C146.782578,599.752075 159.371750,608.118958 172.549896,616.892090 
M246.942169,1013.351013 
	C248.465729,1011.171875 249.504990,1008.946533 250.012192,1006.171753 
	C251.694443,996.968567 251.486511,987.629395 252.536270,978.386047 
	C253.886536,966.496521 254.715103,954.547485 255.744171,942.622009 
	C255.961594,940.102356 255.090363,938.388855 252.241974,938.265625 
	C242.507248,937.844666 233.147522,935.619385 224.075668,932.178345 
	C221.106216,931.051941 219.738602,932.082336 219.070007,934.924805 
	C218.232346,938.485901 217.539169,942.110413 216.337189,945.551575 
	C210.083221,963.455872 205.501343,981.836121 200.582169,1000.121277 
	C199.527283,1004.042297 199.961563,1007.593323 202.725555,1010.865234 
	C209.141541,1018.460510 217.848053,1021.190857 227.156601,1022.703003 
	C228.091614,1022.854919 229.236053,1022.704163 230.077850,1022.283142 
	C235.563385,1019.539124 241.622147,1017.906677 246.942169,1013.351013 
M322.658051,653.843201 
	C317.253876,643.089050 308.460938,636.296021 297.050201,633.278687 
	C289.232819,631.211426 281.357849,631.599182 273.671448,635.142151 
	C251.307541,645.450867 251.955612,678.499817 271.460846,690.593201 
	C283.455353,698.029907 294.997375,698.389343 307.478271,693.722412 
	C321.492645,688.482056 331.510651,667.748047 322.658051,653.843201 
M420.560272,1007.403931 
	C424.377838,1007.206970 428.205627,1007.126648 432.011047,1006.791565 
	C444.241089,1005.715027 449.172516,1000.200256 448.753235,988.142883 
	C448.072540,968.566833 446.630096,949.058655 443.785431,929.660339 
	C443.302124,926.364624 441.385834,926.123047 438.878540,926.223755 
	C431.681946,926.513000 424.550964,925.754578 417.619995,923.967651 
	C413.325104,922.860413 411.605042,923.712524 410.318573,928.237122 
	C404.666870,948.114929 401.378387,968.432922 398.553833,988.827454 
	C397.977570,992.988037 399.206299,998.046875 402.979858,1000.337891 
	C408.113190,1003.454590 413.182495,1007.385864 420.560272,1007.403931 
M606.363770,413.081573 
	C611.208374,414.824890 616.037964,416.611786 620.902588,418.297272 
	C624.533386,419.555267 627.720215,418.724030 629.332642,415.146423 
	C632.482666,408.157227 636.681824,401.782349 640.413818,395.133362 
	C647.325867,382.818878 653.791870,370.241272 661.061401,358.144470 
	C666.281311,349.458313 671.362244,340.701599 676.337646,331.880463 
	C678.919922,327.302094 678.300903,325.656433 673.653870,323.223022 
	C668.835083,320.699646 663.539246,319.084930 659.836487,314.572876 
	C657.668396,311.930939 655.873718,313.950134 654.347656,316.036530 
	C646.778076,326.385590 641.971741,338.313873 635.215881,349.166901 
	C623.928589,367.299438 613.748718,386.119812 603.021179,404.603333 
	C600.372986,409.166138 600.714478,410.627563 606.363770,413.081573 
M78.275536,541.771606 
	C72.515045,551.609924 75.722702,562.534302 74.523987,572.924866 
	C74.491005,573.210754 74.714546,573.564270 74.897980,573.831726 
	C81.247246,583.089844 85.034279,594.195557 96.419228,599.640991 
	C103.070000,602.822021 112.351517,603.881897 118.228729,599.562561 
	C116.337440,595.118958 112.381180,591.758362 111.582680,586.521118 
	C109.052856,569.928467 115.765671,554.879883 130.100922,546.236877 
	C131.247421,545.545654 132.439133,545.033997 132.690872,543.465576 
	C133.135559,540.695007 129.062836,531.093872 126.358475,529.882751 
	C118.964149,526.571350 111.553169,522.241333 103.044235,524.853699 
	C93.382477,527.819946 82.462502,529.251526 78.275536,541.771606 
M6.941111,241.144348 
	C6.670053,242.695389 4.948351,243.897598 5.790143,245.774902 
	C7.791108,246.319290 9.334568,245.068817 11.011888,244.522293 
	C24.079861,240.264328 34.734451,243.456543 43.896637,253.486557 
	C48.179153,258.174744 50.807140,263.673309 53.464485,269.131592 
	C61.101765,284.818878 62.809063,300.260010 52.085243,315.825226 
	C45.903561,324.797668 33.869617,326.333008 26.001471,322.168671 
	C24.783434,321.524017 23.763414,320.018860 21.540045,321.076660 
	C22.819702,326.148529 27.152876,329.058685 30.028381,332.917450 
	C34.817814,339.344604 41.666855,342.898163 49.062515,345.065216 
	C53.631298,346.403961 58.835316,345.489807 62.002327,341.790436 
	C73.197060,328.713928 82.884399,315.162903 74.455368,296.363495 
	C72.128609,291.174072 71.486610,285.159058 70.691078,279.369202 
	C70.016403,274.458862 69.015572,269.665131 66.934402,264.981903 
	C62.213924,254.359451 55.667873,244.980835 47.920578,236.544510 
	C43.858894,232.121582 39.053036,227.831573 33.379829,225.581451 
	C23.252262,221.564651 11.349132,229.553955 6.941111,241.144348 
M502.104156,439.659454 
	C503.351593,444.819000 504.568573,449.986206 505.857452,455.135376 
	C506.683746,458.436646 508.510254,460.237000 512.274719,459.792572 
	C516.551086,459.287720 520.870667,459.103058 525.177307,458.910065 
	C535.299927,458.456390 545.424194,458.024628 555.551575,457.701416 
	C559.473083,457.576233 561.339172,456.022308 561.002197,451.869690 
	C560.679993,447.898346 560.646545,443.890900 560.715515,439.903290 
	C560.847473,432.269745 560.652832,424.514130 566.620300,418.448273 
	C567.148376,417.911469 567.566833,417.047882 567.097351,416.155365 
	C566.454346,415.410675 565.658691,415.578796 564.822388,415.708954 
	C546.962708,418.489075 529.094910,421.218170 511.240753,424.033020 
	C498.229370,426.084351 498.237030,426.132935 502.104156,439.659454 
M440.927582,607.416138 
	C442.521301,605.507446 443.894714,603.338379 445.764709,601.756226 
	C448.084534,599.793457 450.935089,597.867493 451.393005,595.011414 
	C452.265808,589.567749 456.037506,589.124329 460.086823,588.751404 
	C466.315979,588.177612 472.268341,589.483154 478.082794,592.240295 
	C480.491852,584.751160 479.299286,578.203979 476.225830,571.655457 
	C474.845367,568.714233 473.225189,567.830750 470.451233,569.169006 
	C462.989868,572.768677 455.260681,575.943237 448.200562,580.216370 
	C435.026459,588.189880 422.242920,596.532288 412.070587,608.703186 
	C402.111450,620.618958 398.154449,636.814392 404.177063,650.889404 
	C405.258026,653.415833 406.690765,655.784668 409.302979,657.352112 
	C414.618744,650.233093 418.349365,642.616760 422.765656,635.424744 
	C428.467072,626.139954 432.608398,615.848877 440.927582,607.416138 
M432.989624,859.601196 
	C427.494720,861.502808 421.990784,863.378845 416.510742,865.322327 
	C414.947205,865.876770 413.053223,866.475159 412.739624,868.274963 
	C411.153961,877.376282 407.600067,886.291260 409.587585,895.765747 
	C410.302704,899.174500 411.277283,902.654785 414.984741,904.245789 
	C419.413208,906.146240 423.832001,908.070251 428.611328,908.980225 
	C436.780334,910.535583 447.208588,906.196411 451.686371,899.276184 
	C457.837189,889.770325 459.427155,879.083740 454.493317,869.294495 
	C447.616913,855.650879 449.059723,853.314819 432.989624,859.601196 
M707.598145,286.003387 
	C717.334717,288.090668 719.976013,285.993988 719.720398,276.307556 
	C719.681213,274.822571 719.408386,273.343475 719.238220,271.862274 
	C718.120789,262.136871 714.142517,253.264755 710.178467,244.557266 
	C707.860168,239.465027 704.874084,234.347183 699.465820,231.160019 
	C694.037415,227.960938 688.604187,226.074036 683.208374,229.978760 
	C677.251526,234.289429 674.444702,240.589844 674.599731,248.090744 
	C674.762024,255.944183 679.375732,261.687897 683.811646,267.445435 
	C689.958801,275.424011 696.942566,282.461365 707.598145,286.003387 
M235.926270,919.784302 
	C243.257629,921.485291 250.615067,922.399353 258.129181,920.955322 
	C263.273193,919.966736 267.886658,918.141541 269.601044,912.710449 
	C271.400421,907.010254 272.342834,901.100037 272.734039,895.110779 
	C272.947876,891.836121 271.767303,890.313965 268.277527,890.090881 
	C255.011566,889.242737 241.735657,888.960144 228.449585,888.841187 
	C226.401581,888.822876 225.091400,889.269104 224.200653,891.359192 
	C217.837967,906.288757 220.402481,913.008484 235.926270,919.784302 
M595.935547,423.951294 
	C585.387634,423.233368 574.756897,430.326477 575.134949,442.051392 
	C575.634216,457.537750 585.857849,464.773285 600.608093,463.507721 
	C611.963501,462.533386 619.687744,451.887939 617.833008,440.574860 
	C616.393311,431.793335 608.158142,425.337524 595.935547,423.951294 
M90.317337,300.443726 
	C92.308899,310.023376 91.115738,319.648529 89.837769,329.908752 
	C93.113831,327.532257 93.181633,327.560699 93.889648,325.873260 
	C99.087074,313.485840 100.313629,300.423279 99.093605,287.294403 
	C97.482582,269.957855 90.993713,254.260361 81.676102,239.516922 
	C72.554382,225.083450 61.107418,214.407242 43.438190,212.475128 
	C38.394840,211.923645 33.217453,211.927841 28.171276,213.275299 
	C35.326561,212.857117 41.926815,214.931778 47.705299,218.517044 
	C64.182526,228.740295 74.099579,244.242828 81.057968,261.905304 
	C85.837173,274.036346 88.189972,286.762604 90.317337,300.443726 
M342.139099,654.495361 
	C343.429932,657.030334 344.228577,659.724731 344.714600,662.516785 
	C345.231110,665.484070 346.969727,666.232544 349.763641,665.551147 
	C360.873993,662.841431 371.996216,660.179871 383.126648,657.553833 
	C386.140076,656.842896 387.148346,655.459229 386.248383,652.208069 
	C385.104523,648.075806 384.341248,643.785339 383.937195,639.513489 
	C383.335724,633.154663 382.792664,632.579224 376.340881,633.497559 
	C367.721863,634.724548 359.791595,638.280151 351.567261,640.824829 
	C347.245300,642.162170 342.567780,642.612061 338.436737,645.075745 
	C339.681335,648.236633 340.771027,651.004150 342.139099,654.495361 
M433.672729,652.129089 
	C432.801178,659.790466 434.519806,662.347046 441.922729,663.342407 
	C445.690582,663.848938 449.563782,663.786255 453.380432,663.675049 
	C464.016083,663.365479 468.613892,655.149231 463.021667,646.063416 
	C459.740570,640.732544 455.783051,635.814331 452.062286,630.760254 
	C450.991455,629.305725 449.806763,627.858459 447.039795,627.450256 
	C442.754578,635.291321 436.178436,642.068115 433.672729,652.129089 
M746.392334,209.873215 
	C749.650269,207.211823 753.373291,204.713516 750.215515,199.662796 
	C747.610474,195.496155 742.448303,194.169266 737.461060,196.368607 
	C736.856506,196.635208 736.304749,197.019485 735.706787,197.303284 
	C730.234924,199.900024 725.674194,203.729904 721.475769,207.998062 
	C718.798645,210.719833 713.614685,210.892044 713.224548,215.893280 
	C712.869507,220.445190 717.054565,222.649323 718.768555,226.139343 
	C720.664429,229.999847 722.627075,228.916870 725.828796,227.233154 
	C733.819031,223.031296 739.083740,215.837875 746.392334,209.873215 
M763.061157,248.489578 
	C759.360291,245.568756 754.869202,244.110657 750.796326,241.877090 
	C744.830017,238.605209 739.227600,239.536774 734.089844,243.706696 
	C731.362061,245.920639 727.588074,247.552536 729.127075,252.380951 
	C730.756836,257.494141 736.068237,262.758270 740.264893,262.532928 
	C748.137329,262.110138 755.666504,260.331543 762.612000,256.317535 
	C766.390320,254.133957 766.763428,251.882721 763.061157,248.489578 
M467.971313,612.391235 
	C464.428345,611.778809 461.138794,611.940125 458.745819,615.111267 
	C464.396179,622.018982 469.676392,628.829651 474.319061,636.112915 
	C475.623932,638.159973 477.161224,639.553711 479.871613,639.718506 
	C486.174225,640.101562 490.165100,637.777283 491.824127,632.324402 
	C493.291321,627.502014 490.666992,621.439209 485.485992,619.092896 
	C480.047363,616.629883 474.343903,614.751831 467.971313,612.391235 
M501.917450,566.472046 
	C512.160889,559.082703 525.372681,556.796082 535.293457,547.707458 
	C531.240417,545.739502 527.781494,545.948914 524.383667,546.840027 
	C513.934204,549.580505 504.499939,554.912781 494.457764,558.685425 
	C490.632629,560.122498 489.579468,561.780640 491.330658,565.708252 
	C493.063477,569.594666 495.072937,570.354736 498.496765,567.954102 
	C499.295898,567.393860 500.315338,567.147766 501.917450,566.472046 
M260.298492,428.829987 
	C255.432495,430.800781 250.108292,431.632446 245.307693,434.684570 
	C248.109726,436.359467 250.659836,436.611908 253.625137,436.326111 
	C262.873108,435.434845 271.593384,431.862091 280.902802,431.278351 
	C283.482971,431.116577 286.055939,429.996704 288.518707,429.027863 
	C291.307922,427.930542 291.272186,425.387848 290.654114,423.078369 
	C289.934387,420.388885 287.861115,421.483673 286.135193,421.937897 
	C277.771545,424.139038 269.408997,426.344269 260.298492,428.829987 
M250.187820,306.691101 
	C248.936005,307.142517 247.661774,307.540466 246.436035,308.054138 
	C238.840179,311.237061 237.926514,314.625244 242.923752,321.101227 
	C244.176086,322.724121 245.534378,324.256378 247.935059,323.336884 
	C250.922745,322.192566 255.340881,322.878571 256.343567,319.057892 
	C257.449615,314.843323 257.319244,310.300385 256.303619,305.649445 
	C254.172577,305.966034 252.548203,306.207367 250.187820,306.691101 
M288.420349,347.570435 
	C290.062653,339.421631 289.744415,339.084290 282.958130,337.445862 
	C278.691925,336.415833 276.131439,338.385712 274.476501,341.703247 
	C273.313934,344.033722 271.139221,346.778961 273.954529,349.390228 
	C277.029938,352.242737 280.641785,353.009521 284.479919,350.939423 
	C285.767334,350.245056 286.837250,349.147400 288.420349,347.570435 
M780.434692,278.891235 
	C782.417297,278.542023 784.832153,279.576324 786.206787,277.174011 
	C782.196838,272.142365 752.771118,276.208130 748.584229,283.110809 
	C759.335571,281.661133 769.455505,280.296600 780.434692,278.891235 
M280.312805,303.290436 
	C282.772675,304.212036 285.569061,306.072968 287.738190,303.636414 
	C291.075745,299.887390 289.595825,295.275085 289.458740,290.578247 
	C283.103790,291.397552 277.536926,292.379578 273.718231,297.433075 
	C275.020081,300.346771 277.221954,301.771973 280.312805,303.290436 
M317.550323,275.189880 
	C315.030487,275.674408 313.032501,277.225128 310.956085,278.553345 
	C309.555145,279.449463 307.223328,279.765900 307.781403,282.335541 
	C308.267181,284.572418 309.453552,286.323669 311.666931,287.139984 
	C314.859863,288.317535 318.060150,288.261230 320.304413,285.480347 
	C322.687561,282.527313 322.177551,278.884033 321.295044,275.504822 
	C320.922302,274.077515 319.374573,274.695648 317.550323,275.189880 
M352.057404,267.456512 
	C352.790955,264.663971 354.445831,261.967743 352.980560,258.730164 
	C347.435364,258.624451 343.790588,262.327240 339.412201,264.476898 
	C342.885620,271.648865 347.117859,272.726868 352.057404,267.456512 
M212.430222,329.996338 
	C213.820175,333.375397 215.467056,336.564148 219.962799,334.662933 
	C222.491104,333.593719 224.056900,325.912964 222.500992,323.462708 
	C222.018814,322.703369 221.312790,322.437683 220.432861,322.374939 
	C217.017502,322.131317 212.933563,325.581696 212.430222,329.996338 
M678.918640,287.560303 
	C677.641541,286.595886 676.604919,284.921570 674.638733,285.772827 
	C672.893982,286.528229 671.374939,292.964935 672.455872,294.925690 
	C674.173706,298.041565 676.711914,296.905182 678.942993,295.867767 
	C683.098877,293.935364 683.162842,291.899750 678.918640,287.560303 
M830.400879,268.693390 
	C828.526428,269.033356 827.280151,269.884552 827.935486,272.037598 
	C828.634155,274.333008 828.610779,277.004608 830.988708,278.474365 
	C831.317505,278.677582 832.071106,278.615112 832.378113,278.366730 
	C835.326721,275.981232 838.392944,273.676758 840.507629,269.563110 
	C836.905945,269.169647 834.016235,268.853973 830.400879,268.693390 
M291.724518,411.440582 
	C293.573364,410.428802 295.719696,409.712250 296.164429,406.629761 
	C287.874634,408.012390 280.234009,410.201172 272.590454,415.493896 
	C279.608002,414.916229 285.454163,413.998688 291.724518,411.440582 
M858.880859,271.565979 
	C855.270447,271.511566 851.637634,270.178497 847.984802,271.206757 
	C848.151611,273.741119 849.693054,274.950348 850.698608,276.397766 
	C851.803894,277.988861 852.637024,281.399872 855.148071,279.696228 
	C857.565613,278.056091 860.802246,275.872772 858.880859,271.565979 
M383.964630,246.191010 
	C383.460724,244.530670 384.075165,241.395996 380.775360,242.979340 
	C378.355988,244.140259 374.183685,244.242905 374.799622,248.255356 
	C375.153870,250.563171 377.411011,252.846085 380.190460,252.431030 
	C382.925385,252.022644 385.163269,250.410568 383.964630,246.191010 
M73.156685,268.305969 
	C71.369904,257.601227 58.213699,237.242126 51.229305,234.308228 
	C55.355972,239.438446 59.998955,244.304779 63.544746,249.870163 
	C67.181877,255.578857 69.746010,261.971191 73.156685,268.305969 
M329.717133,321.784607 
	C328.870819,323.365692 328.165741,325.177582 330.584290,325.738068 
	C333.134033,326.328979 335.903778,326.702789 338.190735,324.767639 
	C339.135193,323.968445 339.638916,322.766022 338.766571,321.668579 
	C336.911713,319.335175 334.321289,319.889008 331.868927,320.249756 
	C331.269226,320.337982 330.736176,320.879028 329.717133,321.784607 
M227.368835,426.974976 
	C234.587982,424.937225 241.807129,422.899475 249.026260,420.861725 
	C246.120270,420.783752 243.302750,420.926575 240.585297,421.524292 
	C235.987350,422.535706 230.837082,422.229553 227.368835,426.974976 
z"/>
<path fill="#000000" opacity="1.000000" stroke="none" 
	d="
M96.703323,185.977356 
	C95.954750,167.278336 101.773079,150.969040 113.896889,137.882965 
	C134.731766,115.394463 167.835556,107.582039 198.019943,125.125946 
	C208.420868,131.171234 216.527435,139.403488 222.216385,149.695847 
	C232.754333,168.760880 234.381485,188.729477 226.524628,209.311218 
	C222.158920,220.747559 215.646118,230.811447 206.217270,238.452682 
	C197.124710,245.821442 186.613190,251.029999 174.852020,252.835266 
	C159.468597,255.196533 144.426575,253.407394 130.973831,245.478867 
	C108.706581,232.355423 97.198082,212.484268 96.703323,185.977356 
M137.210526,140.685959 
	C125.391411,148.338623 117.779030,159.081573 114.599609,172.713028 
	C109.945724,192.666138 114.984039,210.523972 130.120361,223.908768 
	C146.486633,238.381226 165.936768,240.952194 185.867233,231.270157 
	C197.803787,225.471451 205.962524,215.918335 211.091202,203.217957 
	C220.251755,180.533173 211.946472,153.633606 190.564178,140.468750 
	C173.489670,129.956146 155.406677,129.619690 137.210526,140.685959 
z"/>
<path fill="#000000" opacity="1.000000" stroke="none" 
	d="
M881.095947,510.054504 
	C882.803223,507.859863 884.591614,507.461761 886.521240,508.954956 
	C888.575806,510.544739 888.789368,512.777161 887.452515,514.757874 
	C884.421692,519.248535 884.363464,524.480774 883.320496,529.477234 
	C882.597900,532.938599 883.396729,534.970215 887.509949,534.706238 
	C905.841858,533.529724 923.532349,537.410583 941.208862,541.533142 
	C946.042114,542.660339 951.056763,542.989868 955.941406,543.928650 
	C957.587219,544.244934 960.088989,544.573425 959.693298,547.057800 
	C959.316284,549.424805 956.957703,549.230225 955.195251,549.025879 
	C941.333618,547.418274 927.577698,545.287354 913.943115,542.157654 
	C903.818115,539.833618 893.384583,540.849854 883.095581,541.571533 
	C880.651062,541.743042 878.790466,543.776978 877.179260,545.835938 
	C874.400146,549.387268 872.754517,553.570679 870.551331,557.491150 
	C867.527832,556.556946 867.520447,553.903198 866.804077,551.845215 
	C864.328369,544.732117 863.246887,543.715515 855.754211,543.387207 
	C846.925476,543.000366 838.048828,543.057678 829.316284,544.248169 
	C824.597961,544.891479 822.611633,542.998474 821.909668,539.152100 
	C821.301025,535.816833 819.494690,533.924927 816.564453,535.094482 
	C813.616211,536.271240 808.745667,536.450256 810.016357,542.096924 
	C810.430359,543.936829 811.814514,546.767029 808.217773,547.164185 
	C805.128540,547.505371 803.387512,545.863831 802.648682,542.720032 
	C801.844299,539.297607 802.115784,535.899048 802.464661,532.044067 
	C799.063721,532.667847 798.366577,534.782593 797.857544,537.308899 
	C797.074585,541.195007 795.073853,541.739258 792.132690,539.039001 
	C788.739441,535.923645 785.078247,533.032837 783.310608,528.550781 
	C782.092407,525.461914 779.756592,524.845032 776.819031,525.655701 
	C772.898621,526.737610 768.885376,526.498352 764.903870,526.439697 
	C760.444824,526.374023 759.216003,524.685852 760.281738,520.471680 
	C760.607117,519.184937 760.790222,517.774414 761.461487,516.679993 
	C763.291504,513.696655 764.092529,510.719025 761.168701,508.148987 
	C759.249878,506.462341 752.322876,508.433624 750.515991,510.965881 
	C748.727844,513.471802 746.198975,515.306641 745.063660,518.468201 
	C743.934265,521.613281 741.454041,519.281006 739.314453,518.794556 
	C737.617798,521.729675 735.884033,524.404480 733.020569,519.458435 
	C731.995361,517.687744 729.581909,517.830200 728.313293,519.560852 
	C726.312683,522.290283 723.033997,522.815735 720.504944,525.048035 
	C717.749817,520.133179 712.663940,521.702454 708.790894,521.023621 
	C705.214966,520.396912 705.049072,519.107178 705.381531,516.648254 
	C705.827576,513.349609 706.321411,510.081299 705.627563,506.246826 
	C703.478333,507.689453 702.889465,509.649017 702.200317,511.607941 
	C701.068115,514.825806 698.997925,515.779846 696.056335,513.712402 
	C693.555298,511.954651 690.831909,510.955872 687.830933,510.335175 
	C681.147522,508.952881 676.376526,511.980835 672.230774,516.637878 
	C668.249268,521.110413 665.622925,521.486328 659.411499,518.259766 
	C658.604919,515.096008 661.253784,512.529602 662.306519,510.363739 
	C665.188660,504.434418 662.539734,496.814667 668.321777,492.028168 
	C669.748230,490.847321 670.606995,489.896942 672.975891,490.878235 
	C676.276733,492.245636 679.118408,488.880676 682.654480,488.516418 
	C686.846375,488.084686 691.099121,486.429138 695.006348,483.747253 
	C700.045532,480.288361 706.527527,479.806458 712.523010,478.991119 
	C716.108948,478.503448 716.836548,481.732941 715.681458,484.600006 
	C714.773254,486.854370 713.119385,488.808289 711.674561,491.088593 
	C713.280945,493.564636 716.145203,495.003723 717.108765,498.008270 
	C717.556274,499.403961 719.269104,499.790894 720.464844,498.707214 
	C723.455200,495.997162 726.740173,497.052551 729.931091,497.834045 
	C732.478210,498.457886 733.824829,497.835541 735.025696,495.379822 
	C736.472778,492.420532 738.612061,489.800781 740.441650,487.027344 
	C743.811829,481.918549 743.808716,481.916504 747.932068,486.457642 
	C750.794006,484.422028 753.808777,482.910522 757.411560,485.177582 
	C758.619324,485.937561 759.939087,484.825043 761.140015,484.275665 
	C765.093262,482.467224 768.145081,483.792358 767.848816,487.987610 
	C767.399475,494.351349 770.147522,497.331024 775.864624,499.036743 
	C778.488525,499.819580 780.737915,501.855255 783.160156,503.317719 
	C784.297424,504.004333 785.408691,504.864410 786.852905,504.520691 
	C792.594299,503.154175 796.900208,505.051270 799.909851,510.101105 
	C801.372925,512.555969 803.601196,513.274719 806.354614,512.741089 
	C807.794373,512.462158 809.178101,511.625305 811.025757,512.294739 
	C811.967163,515.199585 812.655273,518.766113 816.552551,519.517639 
	C824.553833,521.060608 826.266113,513.937866 830.171448,509.572662 
	C828.370789,506.726562 825.344055,504.832611 824.931458,501.190796 
	C824.342102,495.988770 826.317627,494.035645 831.328979,493.064453 
	C838.124207,491.747559 843.368530,493.849762 847.780579,498.664398 
	C849.338684,500.364716 850.448669,499.770569 852.086365,498.968018 
	C856.145813,496.978790 858.313049,497.919983 859.320862,502.336914 
	C860.848511,509.032257 865.813354,513.887573 868.427063,520.015076 
	C869.560242,522.671692 872.033813,521.849121 873.713867,519.907959 
	C876.320984,516.895630 879.182800,514.062317 881.095947,510.054504 
M833.756958,523.427612 
	C831.715027,528.088013 829.998047,532.825500 829.895203,538.394958 
	C837.963379,537.375000 845.841309,538.699646 854.142578,536.616150 
	C849.815857,529.265869 841.217224,529.135742 837.509949,522.896729 
	C837.068665,522.153992 835.355225,522.158203 833.756958,523.427612 
M810.798035,529.438965 
	C811.608093,529.317932 812.439758,529.275208 813.223328,529.058350 
	C814.550598,528.690979 816.672791,528.991333 816.447998,526.853821 
	C816.203613,524.530029 814.049988,524.250610 812.248352,524.401123 
	C808.892700,524.681519 808.610291,526.595459 810.798035,529.438965 
M692.647583,489.569427 
	C690.230225,490.559753 689.613159,492.375702 690.349060,494.742401 
	C690.663391,495.753448 691.513428,496.709106 692.489075,496.305756 
	C695.523376,495.051361 694.636902,491.567993 696.426941,489.590485 
	C695.160217,488.667694 694.223328,489.377350 692.647583,489.569427 
z"/>
<path fill="#000000" opacity="1.000000" stroke="none" 
	d="
M705.665771,539.459961 
	C692.312073,537.911682 679.406616,536.410645 666.299194,534.886169 
	C667.083618,530.064331 669.604126,529.652588 672.403564,529.805176 
	C682.683533,530.365662 692.900208,531.549316 703.101685,532.913635 
	C715.411804,534.559937 727.747131,536.020020 740.052063,537.702942 
	C754.399292,539.664978 768.568054,542.406433 781.980713,548.156494 
	C782.877319,548.540894 783.841064,548.984314 784.784363,549.010376 
	C792.814758,549.232971 800.854919,549.205078 808.877563,549.571350 
	C816.325806,549.911438 823.078430,553.066406 829.714844,556.004883 
	C837.636719,559.512573 845.424438,562.863159 854.179138,563.983582 
	C862.362366,565.030884 869.485413,569.530518 876.871887,572.920288 
	C888.553040,578.281006 900.358276,582.710144 913.364685,583.675720 
	C926.592590,584.657837 939.601868,587.364746 952.615112,589.868713 
	C954.723938,590.274475 958.046204,590.168762 957.712769,593.395630 
	C957.349854,596.907532 954.190552,596.370361 951.756409,595.888611 
	C935.792053,592.729126 919.697876,590.085632 903.536499,588.659180 
	C891.759949,587.619751 882.342957,581.210083 871.677002,577.778870 
	C863.453857,575.133484 855.473572,571.711792 847.017700,569.795898 
	C838.615906,567.892273 831.559570,562.857300 823.582947,559.954895 
	C812.587524,555.954102 801.628601,552.392517 789.612610,554.708496 
	C784.315857,555.729370 779.498657,553.035461 774.712585,551.275818 
	C762.588684,546.818420 749.904907,545.145813 737.252136,543.345459 
	C726.900269,541.872559 716.495422,540.772522 705.665771,539.459961 
z"/>
<path fill="#000000" opacity="1.000000" stroke="none" 
	d="
M714.101318,756.967224 
	C696.497314,753.112793 679.307068,749.305603 662.076782,745.688538 
	C658.936951,745.029419 657.066101,743.895264 657.830872,740.449280 
	C658.656372,736.729065 661.394592,737.509277 663.763916,738.314758 
	C681.434875,744.321960 700.101624,746.157288 717.969849,751.135010 
	C740.418274,757.388672 763.403503,761.028809 786.022827,766.423096 
	C807.659485,771.583069 829.649414,775.263489 851.491577,779.555847 
	C852.618408,779.777222 853.816223,779.654602 854.981140,779.661621 
	C857.757935,779.678345 859.500793,780.478577 858.814209,783.830505 
	C858.207886,786.790649 857.112305,788.034180 853.718994,787.286072 
	C815.449463,778.848938 777.156128,770.523376 738.685303,763.031311 
	C730.546265,761.446350 722.558655,759.083923 714.101318,756.967224 
z"/>
<path fill="#000000" opacity="1.000000" stroke="none" 
	d="
M849.663513,589.353027 
	C836.561584,589.315125 823.811768,589.848206 811.443420,587.007202 
	C796.419189,583.556213 781.096313,581.915161 766.069641,578.390137 
	C743.961792,573.203918 721.783386,568.167236 699.197571,565.263489 
	C690.977966,564.206787 682.994507,561.615295 674.643616,561.225220 
	C672.163696,561.109375 669.785095,560.441956 670.296021,557.155457 
	C670.819275,553.789612 673.139465,553.440186 675.924377,554.257996 
	C690.961121,558.673584 706.474976,560.610535 721.885742,563.060608 
	C743.348022,566.472717 764.254456,572.641785 785.678833,576.109375 
	C804.475586,579.151672 823.080078,583.679504 842.423157,583.051331 
	C853.517700,582.690979 864.460693,585.574463 875.433350,587.277649 
	C876.726929,587.478455 877.964905,588.078674 879.209595,588.544739 
	C881.466614,589.389771 881.495483,591.284668 881.043091,593.118347 
	C880.464050,595.465210 878.691711,594.919189 877.018127,594.453186 
	C868.199768,591.998169 859.117493,590.929626 849.663513,589.353027 
z"/>
<path fill="#000000" opacity="1.000000" stroke="none" 
	d="
M817.381714,621.737915 
	C802.878662,619.221130 788.707397,617.251404 774.737305,614.322144 
	C759.630188,611.154358 744.369446,609.001709 729.204651,606.252686 
	C710.740540,602.905457 692.370117,599.040833 673.958740,595.402344 
	C673.468567,595.305542 672.960876,595.279297 672.482178,595.145691 
	C670.733948,594.657898 668.452087,594.381714 668.750244,591.955200 
	C669.108582,589.039001 671.738831,589.695374 673.550720,589.901428 
	C677.836853,590.388794 682.100464,591.126526 686.345825,591.910889 
	C704.638550,595.290405 722.873291,599.012207 741.219055,602.069641 
	C769.549866,606.791260 797.644714,612.854919 826.114319,616.794800 
	C832.501587,617.678711 838.782898,619.416809 845.062439,620.966431 
	C852.621155,622.831543 860.408936,623.757263 867.756958,626.484253 
	C869.157166,627.003906 870.607788,627.413025 871.955872,628.042847 
	C874.300476,629.138306 875.963806,631.016602 874.869629,633.597229 
	C873.662842,636.443481 871.301575,634.486450 869.704773,633.898804 
	C852.899414,627.714844 835.371765,624.709778 817.381714,621.737915 
z"/>
<path fill="#000000" opacity="1.000000" stroke="none" 
	d="
M698.912781,635.333191 
	C689.218201,634.251099 680.005676,632.855774 670.647644,633.212341 
	C668.695618,633.286804 666.147034,633.253113 666.166504,630.486694 
	C666.186584,627.632446 668.350708,626.535339 671.028259,626.711853 
	C687.100403,627.770874 703.174866,628.932251 718.905396,632.640137 
	C742.945312,638.306580 767.407959,641.769775 791.566650,646.788513 
	C805.710327,649.726685 819.989563,652.033020 833.932739,655.963196 
	C842.562805,658.395813 851.613281,659.250854 860.058533,662.394165 
	C863.057800,663.510681 864.445801,660.731506 867.011292,660.221130 
	C868.164673,662.809265 869.359253,665.263428 870.345825,667.798523 
	C870.846252,669.084351 870.642395,670.495056 869.547852,671.490051 
	C868.566467,672.382141 867.408081,672.203613 866.286316,671.638123 
	C856.998901,666.956299 846.963257,664.911682 836.869263,662.797668 
	C824.569702,660.221680 812.478943,656.794861 800.045349,654.640198 
	C777.812378,650.787292 755.782593,645.763123 733.552795,641.889282 
	C722.112427,639.895691 711.052490,635.967712 698.912781,635.333191 
z"/>
<path fill="#000000" opacity="1.000000" stroke="none" 
	d="
M741.429077,724.453491 
	C758.174316,728.364868 774.640381,731.598755 791.083618,734.955688 
	C802.800781,737.347778 814.306763,740.726196 826.047180,743.113708 
	C837.445740,745.431641 848.737671,748.269836 860.110535,750.721619 
	C863.029907,751.351074 863.609192,752.998474 862.907776,755.419067 
	C862.138184,758.074768 860.394836,757.302917 858.548157,756.518921 
	C853.452881,754.355530 847.964417,753.812073 842.595642,752.715698 
	C821.765991,748.461792 801.119812,743.322693 780.320374,738.982788 
	C751.030151,732.871460 721.928406,725.906921 692.596680,720.036255 
	C683.619934,718.239502 675.071777,714.745300 665.905762,713.833740 
	C664.649658,713.708862 663.280273,713.078857 662.292053,712.277405 
	C660.690247,710.978149 660.507324,709.065186 661.427673,707.280151 
	C662.358704,705.474243 663.899963,706.152588 665.355896,706.649353 
	C687.782227,714.301086 711.306702,717.257385 734.240356,722.742310 
	C736.502441,723.283386 738.772095,723.793335 741.429077,724.453491 
z"/>
<path fill="#000000" opacity="1.000000" stroke="none" 
	d="
M760.393005,676.861328 
	C755.052917,674.066406 749.470764,673.932007 744.134827,672.773438 
	C722.883240,668.159363 701.650452,663.458313 680.391724,658.877441 
	C676.831543,658.110352 673.167419,657.837769 669.569885,657.227417 
	C667.048340,656.799622 664.671509,656.265198 664.708008,652.757874 
	C664.746277,649.077271 666.199341,647.607056 669.608887,649.285645 
	C681.476318,655.128113 694.524780,656.003052 707.197937,658.491943 
	C717.276001,660.471252 727.224365,663.125122 737.270996,665.158447 
	C753.056030,668.353027 768.618469,672.455811 784.352051,675.843689 
	C799.210205,679.042908 814.220276,680.156616 829.309326,680.750916 
	C841.762573,681.241516 853.138672,686.092896 864.952515,689.164490 
	C867.328857,689.782288 867.655701,692.024780 867.140747,694.098694 
	C866.459045,696.844299 864.390259,695.883301 862.691711,695.365234 
	C855.246338,693.094360 848.319397,689.390381 840.487549,688.098572 
	C829.782715,686.332764 818.966797,686.302917 808.212891,685.583923 
	C795.190186,684.713257 782.682861,681.418152 769.999023,678.933533 
	C766.920471,678.330444 763.644897,678.577881 760.393005,676.861328 
z"/>
<path fill="#000000" opacity="1.000000" stroke="none" 
	d="
M666.598877,686.626343 
	C663.332581,686.309937 662.447510,684.598206 662.980469,682.052979 
	C663.583862,679.171204 665.719727,679.723999 667.729126,680.157043 
	C680.723694,682.956909 693.629578,686.307129 706.735352,688.414551 
	C721.481873,690.785828 736.433044,691.853821 751.249634,693.830078 
	C764.708435,695.625122 778.353088,696.890625 791.470581,700.170288 
	C809.378601,704.647522 827.630859,707.058167 845.600952,710.999695 
	C851.429565,712.278137 857.118530,714.195496 862.868042,715.832336 
	C864.896545,716.409790 865.372742,717.916077 864.939331,719.738892 
	C864.430847,721.877869 862.944336,722.110962 861.070618,721.497986 
	C844.555115,716.094910 827.319397,714.169250 810.387390,710.744019 
	C797.883850,708.214600 785.556946,704.679993 772.877197,703.005066 
	C754.271057,700.547241 735.580811,698.695740 717.011414,696.000183 
	C704.359070,694.163452 691.854004,691.315735 679.278931,688.941895 
	C675.197021,688.171265 671.102112,687.469604 666.598877,686.626343 
z"/>
<path fill="#000000" opacity="1.000000" stroke="none" 
	d="
M801.991821,404.335815 
	C785.736145,402.234222 769.913513,400.386444 753.998474,399.584442 
	C742.031677,398.981415 730.048340,398.710175 718.073120,398.268524 
	C708.757263,397.924988 699.558105,396.459534 690.351746,395.159271 
	C687.583374,394.768219 684.176392,393.699677 685.039429,389.953278 
	C685.866638,386.362488 689.161560,386.662048 692.037048,387.407013 
	C709.996765,392.060028 728.426270,390.251801 746.631775,391.535797 
	C761.885071,392.611603 777.223389,392.592621 792.388367,394.922211 
	C801.944275,396.390198 811.600159,396.652863 821.242615,397.030640 
	C822.902161,397.095642 824.567383,397.184662 826.213074,397.395203 
	C828.868225,397.734894 829.917297,399.659210 829.830688,401.986664 
	C829.742004,404.371948 827.903564,404.953217 825.721558,405.461823 
	C819.846863,406.831116 814.165588,405.057190 808.398315,404.852722 
	C806.413452,404.782379 804.435242,404.524750 801.991821,404.335815 
z"/>
<path fill="#000000" opacity="1.000000" stroke="none" 
	d="
M795.760132,427.547119 
	C801.346008,427.588531 806.503723,427.588165 811.660828,427.640320 
	C815.014282,427.674286 817.547791,428.575836 817.464661,432.723206 
	C817.379272,436.984924 814.707947,437.573212 811.382935,437.328705 
	C799.793274,436.476379 788.304749,434.766754 776.787292,433.278625 
	C762.303284,431.407196 747.602234,430.677155 733.448853,427.022400 
	C722.771606,424.265228 711.737366,422.864929 701.408997,418.618164 
	C696.534668,416.613892 691.011108,416.362183 686.301514,413.659668 
	C684.405884,412.571869 682.068787,411.693024 683.081726,408.891113 
	C684.039124,406.242828 686.570984,406.233459 688.586487,406.990814 
	C699.687988,411.162537 711.341675,413.238007 722.742188,416.265564 
	C736.037292,419.796295 749.365479,422.928650 763.197693,423.842407 
	C773.943298,424.552277 784.622803,426.262177 795.760132,427.547119 
z"/>
<path fill="#000000" opacity="1.000000" stroke="none" 
	d="
M699.900635,441.796875 
	C729.673401,447.575989 759.265503,451.709137 788.870117,455.792572 
	C796.918640,456.902710 804.968689,458.214752 812.816895,460.488617 
	C814.593933,461.003479 816.803650,460.938629 816.293884,463.604584 
	C815.797424,466.201141 813.705078,467.002594 811.344971,466.700195 
	C805.405884,465.939240 799.492981,464.977081 793.559143,464.172058 
	C771.524780,461.182678 749.470154,458.337585 727.455383,455.211060 
	C714.470642,453.366974 701.539490,451.138153 688.601501,448.978699 
	C686.094543,448.560303 683.728577,447.546600 683.023682,444.661102 
	C682.133179,441.015656 684.643738,438.484375 688.286804,439.405762 
	C691.985107,440.341095 695.554382,441.857513 699.900635,441.796875 
z"/>
<path fill="#000000" opacity="1.000000" stroke="none" 
	d="
M902.075134,358.865112 
	C903.876587,359.921356 905.443115,359.770966 906.548340,358.632080 
	C909.767822,355.314728 913.343445,355.953308 917.131958,357.232819 
	C918.938599,357.843018 920.946594,358.399597 920.799927,360.636200 
	C920.645813,362.985687 918.480469,363.695221 916.524597,364.196014 
	C913.826965,364.886719 910.886169,363.436462 908.293884,364.951355 
	C908.158752,365.369293 907.880737,365.776825 907.988037,365.967865 
	C908.935486,367.654144 909.102417,375.380707 908.346069,377.622192 
	C907.876404,379.014130 907.298401,380.139526 905.672180,380.053497 
	C904.035706,379.966949 903.439819,378.707794 903.249817,377.327148 
	C902.818970,374.197266 902.214050,371.054108 902.198364,367.913727 
	C902.178284,363.901306 899.580933,362.880524 896.500793,362.235840 
	C895.361938,361.997437 894.086975,362.050385 893.507263,363.388702 
	C892.951599,364.671234 893.443909,365.890289 894.620239,366.315674 
	C898.891174,367.859985 897.325317,370.399719 895.915833,372.485931 
	C897.240112,376.040802 903.112122,376.909363 900.955505,381.277802 
	C899.468689,384.289490 895.606262,383.772491 892.851746,382.347290 
	C888.837891,380.270538 892.053650,377.543121 892.767334,374.766632 
	C890.968933,373.252472 886.638977,373.420898 887.227295,370.272583 
	C888.071045,365.756897 887.039307,360.911682 889.175171,356.746094 
	C890.467041,354.226532 893.163330,353.853210 895.730835,355.158875 
	C897.803772,356.212921 899.755737,357.504791 902.075134,358.865112 
z"/>
<path fill="#000000" opacity="1.000000" stroke="none" 
	d="
M902.081665,303.739014 
	C903.749390,302.025787 904.703186,303.064728 905.364807,304.292847 
	C908.676514,310.439880 913.836121,313.680969 920.690247,314.693787 
	C923.919556,315.170990 927.047546,316.286591 929.059814,319.068390 
	C928.235840,321.256226 926.557129,321.070770 925.165405,320.958160 
	C917.239929,320.316803 909.364624,319.328308 901.661011,317.232941 
	C899.359253,316.606812 898.840881,315.252930 899.442993,313.126892 
	C900.298462,310.105896 901.092896,307.067596 902.081665,303.739014 
z"/>
<path fill="#000000" opacity="1.000000" stroke="none" 
	d="
M921.494873,371.641846 
	C922.347656,374.218323 924.979492,377.006104 922.062744,378.551666 
	C919.431641,379.945892 917.242920,376.986023 915.872070,374.863251 
	C914.672913,373.006226 912.156067,370.397766 915.136292,368.420959 
	C917.925537,366.570801 920.087891,368.488190 921.494873,371.641846 
z"/>
<path fill="#000000" opacity="1.000000" stroke="none" 
	d="
M814.076538,542.446045 
	C816.486328,544.489502 817.061523,541.398560 818.189819,540.792908 
	C820.770996,542.402588 820.708252,544.232483 819.167175,545.917542 
	C817.684448,547.538696 815.569702,547.783081 813.744995,546.594727 
	C811.921814,545.407349 812.306152,543.854431 814.076538,542.446045 
z"/>
<path fill="#000000" opacity="1.000000" stroke="none" 
	d="
M280.059479,573.613037 
	C276.813202,556.391113 273.698090,539.579651 270.506805,522.782776 
	C268.798401,513.790649 271.377777,509.517029 280.627899,507.521729 
	C292.324371,504.998840 303.810333,501.721802 315.310242,498.481812 
	C328.699402,494.709534 341.896484,490.416656 354.788940,485.101685 
	C362.295410,482.007111 370.290039,480.112732 378.005951,477.503632 
	C382.239044,476.072205 382.644989,479.322083 383.011627,481.714722 
	C384.320526,490.256775 386.020081,498.712585 387.826813,507.156525 
	C391.365509,523.695007 394.675018,540.284607 398.415802,556.776672 
	C399.674347,562.325256 400.483734,567.925049 400.713074,573.512207 
	C400.920807,578.573608 396.937653,581.690674 392.676575,583.269104 
	C381.149780,587.539062 369.359528,591.097107 357.828491,595.356384 
	C346.274017,599.624329 334.251495,602.251648 322.460052,605.612366 
	C313.639465,608.126465 304.538269,610.701477 295.086426,610.280701 
	C289.446564,610.029663 286.820007,607.416382 285.780273,601.836121 
	C284.048340,592.540833 282.046906,583.295776 280.059479,573.613037 
M346.014801,504.678345 
	C334.933258,507.601929 324.217621,511.723511 313.058838,514.450012 
	C305.008209,516.417114 297.155060,519.223389 289.278870,521.850464 
	C287.401886,522.476501 285.087006,523.049316 285.653168,526.253967 
	C289.410614,547.521484 294.074738,568.589478 299.143585,589.577332 
	C300.155518,593.767334 302.517914,594.101990 306.174896,593.447632 
	C320.607971,590.864990 334.882477,587.477295 348.656677,582.597778 
	C359.700989,578.685364 371.734375,577.491638 381.791687,570.696533 
	C383.945557,569.241272 384.585632,568.186035 384.152771,565.582520 
	C380.556183,543.950317 375.537964,522.616089 371.002106,501.179779 
	C370.332703,498.016113 369.285187,497.378662 365.988983,497.721741 
	C358.967316,498.452545 353.394928,502.851776 346.014801,504.678345 
z"/>
<path fill="#000000" opacity="1.000000" stroke="none" 
	d="
M335.427002,113.737556 
	C340.276337,116.419258 341.821930,122.620331 339.069855,126.943764 
	C336.872040,130.396469 330.262390,131.213425 325.992462,128.560120 
	C322.024109,126.094208 320.664185,119.632202 323.577942,115.839218 
	C326.660339,111.826721 331.041718,113.428429 335.427002,113.737556 
z"/>
<path fill="#000000" opacity="1.000000" stroke="none" 
	d="
M163.888535,178.845779 
	C168.688904,175.972260 173.471085,176.105270 178.175583,177.611694 
	C181.478287,178.669235 184.044830,180.831970 184.163651,184.732544 
	C184.276733,188.445404 181.861816,190.500259 178.901413,191.922195 
	C174.363586,194.101807 169.707489,193.495148 165.416367,191.381104 
	C161.401764,189.403275 160.835785,184.289413 163.888535,178.845779 
z"/>
</svg>